<?xml version="1.0" encoding="UTF-8"?><svg id="Layer_2" xmlns="http://www.w3.org/2000/svg" viewBox="0 0 647 647"><defs><style>.cls-1{fill:#141f21;}</style></defs><g id="Layer_1-2"><path class="cls-1" d="M40.44,647h566.13c22.33,0,40.44-18.1,40.44-40.44H0c0,22.33,18.1,40.44,40.44,40.44ZM564.65,324.98H82.35c0,13.27,1.09,26.27,3.15,38.96H0v40.44h95.75c5.21,14.95,11.86,29.24,19.77,42.68H0v40.44h145.35c13.19,14.45,28.12,27.29,44.46,38.19H0v40.44h647v-40.44h-189.81c16.33-10.9,31.26-23.74,44.46-38.19h145.35v-40.44h-115.51c7.91-13.45,14.55-27.73,19.77-42.68h95.75v-40.44h-85.5c2.06-12.68,3.15-25.69,3.15-38.96ZM606.56,0H40.44C18.1,0,0,18.1,0,40.44v283.06h82.37c.8-132.5,108.44-239.67,241.13-239.67s240.33,107.17,241.13,239.67h82.37V40.44c0-22.33-18.1-40.44-40.44-40.44Z"/></g></svg>